<?xml version="1.0" encoding="utf-8"?>
<!-- Generator: Adobe Illustrator 22.1.0, SVG Export Plug-In . SVG Version: 6.00 Build 0)  -->
<svg version="1.1" id="Calque_1" xmlns="http://www.w3.org/2000/svg" xmlns:xlink="http://www.w3.org/1999/xlink" x="0px" y="0px"
	 viewBox="0 0 592 840" style="enable-background:new 0 0 592 840;" xml:space="preserve">
<style type="text/css">
	.st0{display:none;}
	.st1{display:inline;fill:#403D7F;}
	.st2{display:inline;fill:url(#SVGID_1_);}
	.st3{display:inline;fill:#BB8545;}
	.st4{display:inline;fill:#0466A6;}
	.st5{display:none;fill:url(#SVGID_2_);}
	.st6{display:none;fill:url(#SVGID_3_);}
	.st7{clip-path:url(#SVGID_5_);}
	.st8{clip-path:url(#SVGID_7_);}
	.st9{fill:url(#SVGID_8_);}
	.st10{fill:url(#SVGID_9_);}
	.st11{fill:url(#SVGID_10_);}
	.st12{fill:#EE2424;}
	.st13{fill:#FFFFFF;}
	.st14{clip-path:url(#SVGID_12_);}
	.st15{clip-path:url(#SVGID_14_);}
	.st16{fill:url(#SVGID_15_);}
	.st17{fill:url(#SVGID_16_);}
	.st18{fill:url(#SVGID_17_);}
	.st19{fill:url(#SVGID_18_);}
	.st20{fill:url(#SVGID_19_);}
	.st21{fill:none;}
	.st22{display:none;enable-background:new    ;}
	.st23{font-family:'Plavsky';}
	.st24{font-size:6px;}
</style>
<g class="st0">
	<path class="st1" d="M278.5,351h1c0.8,1.5,2.8,3.1,5.6,3.1c1.5,0,3-0.4,3-1.5c0-0.8-0.7-1.2-2.2-1.4l-2.1-0.3
		c-3.7-0.5-5.2-1.7-5.2-3.1c0-2,2.5-3,5.5-3c1.3,0,2.5,0.2,3.6,0.7l1.1-0.6h0.9l0.3,3.5h-1c-0.8-1.4-2.6-2.9-5.1-2.9
		c-1.3,0-2.9,0.4-2.9,1.4c0,0.6,0.5,1.1,2.3,1.3l2.6,0.3c3.4,0.5,4.8,1.5,4.8,3.1c0,1.6-1.9,3.1-5.4,3.1c-1.7,0-3.1-0.3-4.3-0.9
		l-1.3,0.8h-0.9L278.5,351z"/>
	<path class="st1" d="M299.9,344.9c4.4,0,7.8,2.1,7.8,5s-3.4,5-7.8,5c-4.4,0-7.8-2.1-7.8-5S295.5,344.9,299.9,344.9z M299.9,354.2
		c2.5,0,3.7-1.5,3.7-4.3s-1.2-4.3-3.7-4.3c-2.5,0-3.7,1.5-3.7,4.3C296.1,352.8,297.4,354.2,299.9,354.2z"/>
	<path class="st1" d="M308.6,345.1h5.3l8,6.1v-3.7c0-1.2-0.4-1.6-2.3-1.7v-0.7h6v0.7c-1.9,0-2.3,0.4-2.3,1.7v7.3H322l-9.7-7.5h0v5
		c0,1.2,0.4,1.6,2.3,1.7v0.7h-6v-0.7c1.9,0,2.3-0.4,2.3-1.7v-5.8c-0.5-0.5-1.3-0.7-2.3-0.7L308.6,345.1L308.6,345.1z"/>
	<path class="st1" d="M325.5,345.1h7.4v0.7h-0.5c-0.9,0-1.1,0.1-1.1,0.3c0,0.1,0.1,0.2,0.4,0.5l2.7,2.8l2-2.3
		c0.3-0.3,0.4-0.5,0.4-0.7c0-0.6-1-0.7-2-0.7v-0.7h6.1v0.7c-1.5,0.1-2.1,0.5-3.1,1.6l-2.7,3v2.8c0,0.5,0.1,0.7,1.2,0.7h1.1v0.7H329
		V354h1c1.1,0,1.2-0.2,1.2-0.7v-2.7l-4-4.1c-0.6-0.6-0.8-0.7-1.9-0.7L325.5,345.1L325.5,345.1z"/>
	<path class="st1" d="M284.7,444.5c-0.3-1.1-1.1-1.6-2.5-1.6c-1.9,0-2.7,1.4-2.7,3c0,1.5,0.6,3,2.8,3c1.4,0,2.2-0.8,2.5-1.8h0.8
		c-0.4,1.3-1.3,2.4-3.4,2.4c-2.4,0-3.4-1.6-3.4-3.5c0-2.5,1.6-3.5,3.7-3.5c1.6,0,2.8,0.7,3,2.1L284.7,444.5L284.7,444.5z"/>
	<path class="st1" d="M290.7,442.3c2.5,0,3.7,1.6,3.7,3.5c0,1.9-1.2,3.5-3.7,3.5s-3.7-1.6-3.7-3.5
		C287.1,443.9,288.4,442.3,290.7,442.3z M293.7,445.9c0-1.9-1.1-3-2.9-3c-2,0-2.9,1.4-2.9,3c0,1.6,0.9,3,2.9,3
		C292.8,448.8,293.7,447.4,293.7,445.9z"/>
	<path class="st1" d="M296.2,449.2v-6.7h1.1l2.6,5.9h0l2.5-5.9h1.1v6.7h-0.7v-5.9h0l-2.6,5.9h-0.7l-2.6-5.9h0v5.9H296.2z"/>
	<path class="st1" d="M305.6,449.2v-6.7h2.9c2,0,2.6,0.9,2.6,1.9c0,1.5-1.6,1.9-3,1.9h-1.7v2.9L305.6,449.2L305.6,449.2z
		 M308.1,445.7c1.4,0,2.2-0.2,2.2-1.4c0-0.8-0.6-1.3-2-1.3h-1.9v2.6L308.1,445.7L308.1,445.7z"/>
	<path class="st1" d="M312.7,442.5h0.7v4c0,1.6,0.7,2.3,2.3,2.3c1.7,0,2.3-0.8,2.3-2.3v-4h0.7v4.1c0,1.7-1,2.7-3,2.7
		c-2.1,0-3-1-3-2.7V442.5z"/>
	<path class="st1" d="M320.2,442.5h5.7v0.5h-2.5v6.1h-0.7v-6.1h-2.5L320.2,442.5L320.2,442.5z"/>
	<path class="st1" d="M327.3,449.2v-6.7h5.2v0.5h-4.5v2.4h4.1v0.5h-4.1v2.6h4.6v0.5L327.3,449.2L327.3,449.2z"/>
	<path class="st1" d="M335.1,446.1v3h-0.7v-6.7h3.1c1.7,0,2.7,0.5,2.7,1.8c0,0.8-0.4,1.3-1.3,1.6c0.9,0.3,1,1.1,1,1.8
		c0,1,0.1,1.3,0.3,1.4v0.1h-0.8c-0.3-0.5-0.2-1.7-0.4-2.2c-0.2-0.7-0.8-0.8-1.6-0.8H335.1z M337.4,445.6c1.1,0,2-0.4,2-1.3
		c0-1-0.9-1.2-1.9-1.2h-2.4v2.6H337.4z"/>
	<path class="st1" d="M279.1,455.4v-4.8h3.6v0.4h-3.1v1.7h2.8v0.4h-2.8v1.9h3.2v0.4L279.1,455.4L279.1,455.4z"/>
	<path class="st1" d="M284.3,451.3L284.3,451.3l0,4.1h-0.5v-4.8h0.6l3.2,4.1h0v-4.1h0.5v4.8h-0.6L284.3,451.3z"/>
	<path class="st1" d="M288.8,450.7h4v0.4H291v4.4h-0.5v-4.4h-1.7L288.8,450.7L288.8,450.7z"/>
	<path class="st1" d="M293.5,455.4v-4.8h3.6v0.4H294v1.7h2.8v0.4H294v1.9h3.2v0.4L293.5,455.4L293.5,455.4z"/>
	<path class="st1" d="M298.6,453.3v2.2h-0.5v-4.8h2.1c1.2,0,1.9,0.4,1.9,1.2c0,0.6-0.3,0.9-0.9,1.2c0.6,0.2,0.7,0.8,0.7,1.3
		c0,0.7,0.1,0.9,0.2,1v0h-0.6c-0.2-0.3-0.2-1.2-0.2-1.6c-0.1-0.5-0.6-0.6-1.1-0.6L298.6,453.3L298.6,453.3z M300.2,452.9
		c0.8,0,1.4-0.3,1.4-0.9c0-0.7-0.6-0.9-1.3-0.9h-1.6v1.8L300.2,452.9L300.2,452.9z"/>
	<path class="st1" d="M302.7,450.7h4v0.4h-1.7v4.4h-0.5v-4.4h-1.7V450.7z"/>
	<path class="st1" d="M306.9,455.4l2.1-4.8h0.6l2.1,4.8h-0.5l-0.6-1.5h-2.5l-0.6,1.5H306.9z M308.3,453.5h2.1l-1.1-2.5L308.3,453.5z
		"/>
	<path class="st1" d="M312.7,455.4v-4.8h0.5v4.8H312.7z"/>
	<path class="st1" d="M315.1,451.3L315.1,451.3l0,4.1h-0.5v-4.8h0.6l3.2,4.1h0v-4.1h0.5v4.8h-0.6L315.1,451.3z"/>
	<path class="st1" d="M320,455.4v-4.8h0.8l1.8,4.2h0l1.8-4.2h0.8v4.8h-0.5v-4.2h0l-1.8,4.2h-0.5l-1.8-4.2h0v4.2H320z"/>
	<path class="st1" d="M326.4,455.4v-4.8h3.6v0.4h-3.1v1.7h2.8v0.4h-2.8v1.9h3.2v0.4L326.4,455.4L326.4,455.4z"/>
	<path class="st1" d="M331.5,451.3L331.5,451.3l0,4.1H331v-4.8h0.6l3.2,4.1h0v-4.1h0.5v4.8h-0.6L331.5,451.3z"/>
	<path class="st1" d="M336,450.7h4v0.4h-1.7v4.4h-0.5v-4.4H336V450.7z"/>
	<path class="st1" d="M343.4,453.3h1.8v0.2h-0.8v2h-0.2v-2h-0.8L343.4,453.3L343.4,453.3z"/>
	<path class="st1" d="M345.8,455.4v-1.9h0l0.8,1.9h0.2l0.8-1.9h0v1.9h0.2v-2.1h-0.4l-0.8,1.9h0l-0.8-1.9h-0.4v2.1H345.8z"/>
	
		<linearGradient id="SVGID_1_" gradientUnits="userSpaceOnUse" x1="14211.3652" y1="-14836.3818" x2="14530.0029" y2="-14836.3818" gradientTransform="matrix(-4.405967e-04 0.25 -0.25 -4.405967e-04 -3393.0938 -3200.7378)">
		<stop  offset="0" style="stop-color:#0A6B37"/>
		<stop  offset="0.5" style="stop-color:#4BB749"/>
		<stop  offset="1" style="stop-color:#098040"/>
	</linearGradient>
	<polygon class="st2" points="269.9,398.3 309.7,438.3 349.5,398.7 309.5,358.6 	"/>
</g>
<g class="st0">
	<path class="st3" d="M44.6,846.6c1.2-0.2,2.5-0.3,4-0.3c2.7,0,4.7,0.7,5.9,1.8c1.3,1.2,2.1,2.9,2.1,5.3c0,2.4-0.8,4.3-2.1,5.7
		c-1.4,1.4-3.7,2.1-6.5,2.1c-1.4,0-2.5-0.1-3.4-0.2V846.6z M46.5,859.5c0.5,0.1,1.2,0.1,1.9,0.1c4.1,0,6.2-2.3,6.2-6.2
		c0-3.5-1.9-5.7-5.9-5.7c-1,0-1.7,0.1-2.2,0.2V859.5z"/>
	<path class="st3" d="M68.6,855.7c0,3.9-2.7,5.6-5.2,5.6c-2.8,0-5-2.1-5-5.4c0-3.5,2.3-5.6,5.2-5.6
		C66.6,850.3,68.6,852.5,68.6,855.7z M60.3,855.8c0,2.3,1.3,4,3.2,4c1.8,0,3.2-1.7,3.2-4.1c0-1.8-0.9-4-3.2-4
		C61.3,851.7,60.3,853.8,60.3,855.8z"/>
	<path class="st3" d="M71.7,850.5l1.4,5.3c0.3,1.2,0.6,2.3,0.8,3.3h0.1c0.2-1.1,0.6-2.2,0.9-3.3l1.7-5.4h1.6l1.6,5.3
		c0.4,1.3,0.7,2.4,0.9,3.4h0.1c0.2-1.1,0.5-2.2,0.8-3.4l1.5-5.3H85L81.6,861h-1.7l-1.6-5c-0.4-1.2-0.7-2.2-0.9-3.5h0
		c-0.3,1.3-0.6,2.3-1,3.5l-1.7,5h-1.7l-3.2-10.5L71.7,850.5L71.7,850.5z"/>
	<path class="st3" d="M86.9,853.3c0-1.1,0-2-0.1-2.8h1.7l0.1,1.7h0c0.5-1,1.7-2,3.5-2c1.5,0,3.7,0.9,3.7,4.5v6.3h-1.9v-6.1
		c0-1.7-0.6-3.1-2.4-3.1c-1.2,0-2.2,0.9-2.6,2c-0.1,0.2-0.1,0.6-0.1,0.9v6.3h-1.9L86.9,853.3L86.9,853.3z"/>
	<path class="st3" d="M98.9,845.6h1.9V861h-1.9V845.6z"/>
	<path class="st3" d="M113.6,855.7c0,3.9-2.7,5.6-5.2,5.6c-2.8,0-5-2.1-5-5.4c0-3.5,2.3-5.6,5.2-5.6
		C111.6,850.3,113.6,852.5,113.6,855.7z M105.3,855.8c0,2.3,1.3,4,3.2,4c1.8,0,3.2-1.7,3.2-4.1c0-1.8-0.9-4-3.2-4
		C106.2,851.7,105.3,853.8,105.3,855.8z"/>
	<path class="st3" d="M123.4,858.5c0,0.9,0,1.8,0.2,2.5h-1.7l-0.2-1.3h-0.1c-0.6,0.8-1.7,1.6-3.2,1.6c-2.1,0-3.2-1.5-3.2-3
		c0-2.5,2.3-3.9,6.3-3.9v-0.2c0-0.8-0.2-2.4-2.4-2.4c-1,0-2,0.3-2.8,0.8l-0.4-1.3c0.9-0.5,2.2-0.9,3.5-0.9c3.2,0,4,2.2,4,4.3
		L123.4,858.5L123.4,858.5z M121.6,855.6c-2.1,0-4.4,0.3-4.4,2.4c0,1.3,0.8,1.8,1.8,1.8c1.4,0,2.3-0.9,2.6-1.8
		c0.1-0.2,0.1-0.4,0.1-0.6L121.6,855.6L121.6,855.6z"/>
	<path class="st3" d="M135.6,845.6v12.7c0,0.9,0,2,0.1,2.7h-1.7l-0.1-1.8h-0.1c-0.6,1.2-1.8,2.1-3.5,2.1c-2.5,0-4.5-2.2-4.5-5.3
		c0-3.5,2.2-5.6,4.7-5.6c1.6,0,2.7,0.8,3.2,1.6h0v-6.3L135.6,845.6L135.6,845.6z M133.7,854.8c0-0.2,0-0.6-0.1-0.8
		c-0.3-1.2-1.3-2.2-2.8-2.2c-2,0-3.2,1.7-3.2,4c0,2.1,1.1,3.9,3.1,3.9c1.3,0,2.5-0.9,2.8-2.3c0.1-0.3,0.1-0.5,0.1-0.8V854.8z"/>
	<path class="st3" d="M142.7,861v-1.2l1.5-1.5c3.6-3.4,5.3-5.3,5.3-7.4c0-1.4-0.7-2.8-2.8-2.8c-1.3,0-2.4,0.7-3,1.2l-0.6-1.3
		c1-0.8,2.4-1.4,4-1.4c3,0,4.3,2.1,4.3,4.1c0,2.6-1.9,4.7-4.9,7.6l-1.1,1v0h6.3v1.6H142.7z"/>
	<path class="st3" d="M163.3,853.8c0,4.8-1.8,7.5-4.9,7.5c-2.8,0-4.6-2.6-4.7-7.3c0-4.8,2.1-7.3,4.9-7.3
		C161.6,846.6,163.3,849.3,163.3,853.8z M155.6,854c0,3.7,1.1,5.8,2.9,5.8c1.9,0,2.9-2.3,2.9-5.9c0-3.5-0.9-5.8-2.9-5.8
		C156.9,848.1,155.6,850.2,155.6,854z"/>
	<path class="st3" d="M174.4,853.8c0,4.8-1.8,7.5-4.9,7.5c-2.8,0-4.6-2.6-4.7-7.3c0-4.8,2.1-7.3,4.9-7.3
		C172.7,846.6,174.4,849.3,174.4,853.8z M166.8,854c0,3.7,1.1,5.8,2.9,5.8c1.9,0,2.9-2.3,2.9-5.9c0-3.5-0.9-5.8-2.9-5.8
		C168,848.1,166.8,850.2,166.8,854z"/>
	<path class="st3" d="M175.6,863.7c0.5-1.3,1.1-3.6,1.3-5.2l2.1-0.2c-0.5,1.8-1.5,4.3-2.1,5.3L175.6,863.7z"/>
	<path class="st3" d="M190.1,853.8c0,4.8-1.8,7.5-4.9,7.5c-2.8,0-4.6-2.6-4.7-7.3c0-4.8,2.1-7.3,4.9-7.3
		C188.4,846.6,190.1,849.3,190.1,853.8z M182.4,854c0,3.7,1.1,5.8,2.9,5.8c1.9,0,2.9-2.3,2.9-5.9c0-3.5-0.9-5.8-2.9-5.8
		C183.6,848.1,182.4,850.2,182.4,854z"/>
	<path class="st3" d="M201.2,853.8c0,4.8-1.8,7.5-4.9,7.5c-2.8,0-4.6-2.6-4.7-7.3c0-4.8,2.1-7.3,4.9-7.3
		C199.5,846.6,201.2,849.3,201.2,853.8z M193.6,854c0,3.7,1.1,5.8,2.9,5.8c1.9,0,2.9-2.3,2.9-5.9c0-3.5-0.9-5.8-2.9-5.8
		C194.8,848.1,193.6,850.2,193.6,854z"/>
	<path class="st3" d="M212.4,853.8c0,4.8-1.8,7.5-4.9,7.5c-2.8,0-4.6-2.6-4.7-7.3c0-4.8,2.1-7.3,4.9-7.3
		C210.7,846.6,212.4,849.3,212.4,853.8z M204.7,854c0,3.7,1.1,5.8,2.9,5.8c1.9,0,2.9-2.3,2.9-5.9c0-3.5-0.9-5.8-2.9-5.8
		C205.9,848.1,204.7,850.2,204.7,854z"/>
	<path class="st3" d="M220.3,849.4v5.1h4.9v1.3h-4.9v5.2h-1.4v-5.2H214v-1.3h4.9v-5.1H220.3z"/>
	<path class="st3" d="M232.3,845.6h1.9v6.6h0c0.7-1.2,1.9-1.9,3.6-1.9c2.6,0,4.5,2.2,4.5,5.3c0,3.8-2.4,5.6-4.7,5.6
		c-1.5,0-2.7-0.6-3.5-2h0l-0.1,1.7h-1.6c0-0.7,0.1-1.8,0.1-2.7L232.3,845.6L232.3,845.6z M234.2,856.8c0,0.2,0,0.5,0.1,0.7
		c0.4,1.3,1.5,2.2,2.9,2.2c2,0,3.2-1.6,3.2-4c0-2.1-1.1-3.9-3.1-3.9c-1.3,0-2.5,0.9-2.9,2.3c-0.1,0.2-0.1,0.5-0.1,0.8V856.8z"/>
	<path class="st3" d="M244.7,853.8c0-1.2,0-2.3-0.1-3.3h1.7l0.1,2.1h0.1c0.5-1.4,1.6-2.3,2.9-2.3c0.2,0,0.4,0,0.5,0v1.8
		c-0.2,0-0.4,0-0.6,0c-1.4,0-2.3,1-2.6,2.4c0,0.3-0.1,0.6-0.1,0.9v5.6h-1.9L244.7,853.8L244.7,853.8z"/>
	<path class="st3" d="M259.1,858.5c0,0.9,0,1.8,0.1,2.5h-1.7l-0.1-1.3h-0.1c-0.6,0.8-1.7,1.6-3.2,1.6c-2.1,0-3.2-1.5-3.2-3
		c0-2.5,2.3-3.9,6.3-3.9v-0.2c0-0.8-0.2-2.4-2.4-2.4c-1,0-2,0.3-2.8,0.8l-0.4-1.3c0.9-0.5,2.1-0.9,3.5-0.9c3.2,0,4,2.2,4,4.3
		L259.1,858.5L259.1,858.5z M257.2,855.6c-2.1,0-4.4,0.3-4.4,2.4c0,1.3,0.8,1.8,1.8,1.8c1.4,0,2.3-0.9,2.6-1.8
		c0.1-0.2,0.1-0.4,0.1-0.6L257.2,855.6L257.2,855.6z"/>
	<path class="st3" d="M262.1,853.3c0-1.1,0-2-0.1-2.8h1.7l0.1,1.7h0c0.5-1,1.7-2,3.5-2c1.5,0,3.7,0.9,3.7,4.5v6.3h-1.9v-6.1
		c0-1.7-0.6-3.1-2.4-3.1c-1.2,0-2.2,0.9-2.6,2c-0.1,0.2-0.1,0.6-0.1,0.9v6.3h-1.9L262.1,853.3L262.1,853.3z"/>
	<path class="st3" d="M283.3,845.6v12.7c0,0.9,0,2,0.1,2.7h-1.7l-0.1-1.8h-0.1c-0.6,1.2-1.8,2.1-3.5,2.1c-2.5,0-4.5-2.2-4.5-5.3
		c0-3.5,2.2-5.6,4.7-5.6c1.6,0,2.7,0.8,3.2,1.6h0v-6.3L283.3,845.6L283.3,845.6z M281.4,854.8c0-0.2,0-0.6-0.1-0.8
		c-0.3-1.2-1.3-2.2-2.8-2.2c-2,0-3.1,1.7-3.1,4c0,2.1,1.1,3.9,3.1,3.9c1.3,0,2.5-0.9,2.8-2.3c0.1-0.3,0.1-0.5,0.1-0.8L281.4,854.8
		L281.4,854.8z"/>
	<path class="st3" d="M291.1,845.6h1.9V861h-1.9V845.6z"/>
	<path class="st3" d="M305.7,855.7c0,3.9-2.7,5.6-5.2,5.6c-2.8,0-5-2.1-5-5.4c0-3.5,2.3-5.6,5.2-5.6
		C303.7,850.3,305.7,852.5,305.7,855.7z M297.4,855.8c0,2.3,1.3,4,3.2,4c1.8,0,3.2-1.7,3.2-4.1c0-1.8-0.9-4-3.1-4
		C298.4,851.7,297.4,853.8,297.4,855.8z"/>
	<path class="st3" d="M317.1,859.5c0,2.4-0.5,3.9-1.5,4.8c-1,0.9-2.5,1.3-3.9,1.3c-1.3,0-2.6-0.3-3.5-0.9l0.5-1.5
		c0.7,0.5,1.8,0.8,3.1,0.8c2,0,3.4-1,3.4-3.7v-1.2h0c-0.6,1-1.7,1.8-3.4,1.8c-2.6,0-4.5-2.2-4.5-5.1c0-3.6,2.3-5.6,4.8-5.6
		c1.8,0,2.8,0.9,3.3,1.8h0l0.1-1.6h1.7c-0.1,0.7-0.1,1.6-0.1,2.9L317.1,859.5L317.1,859.5z M315.2,854.6c0-0.3,0-0.6-0.1-0.8
		c-0.4-1.1-1.3-2-2.7-2c-1.8,0-3.1,1.5-3.1,4c0,2.1,1.1,3.8,3.1,3.8c1.2,0,2.3-0.7,2.6-2c0.1-0.3,0.1-0.7,0.1-1L315.2,854.6
		L315.2,854.6z"/>
	<path class="st3" d="M329.8,855.7c0,3.9-2.7,5.6-5.2,5.6c-2.8,0-5-2.1-5-5.4c0-3.5,2.3-5.6,5.2-5.6
		C327.8,850.3,329.8,852.5,329.8,855.7z M321.5,855.8c0,2.3,1.3,4,3.2,4c1.8,0,3.2-1.7,3.2-4.1c0-1.8-0.9-4-3.1-4
		C322.5,851.7,321.5,853.8,321.5,855.8z"/>
	<path class="st3" d="M332,859.1c0.6,0.3,1.6,0.7,2.5,0.7c1.4,0,2-0.7,2-1.6c0-0.9-0.5-1.4-1.9-1.9c-1.9-0.7-2.8-1.7-2.8-3
		c0-1.7,1.4-3.1,3.6-3.1c1.1,0,2,0.3,2.6,0.7l-0.5,1.4c-0.4-0.3-1.2-0.6-2.1-0.6c-1.1,0-1.7,0.7-1.7,1.4c0,0.9,0.6,1.3,2,1.8
		c1.8,0.7,2.8,1.6,2.8,3.2c0,1.9-1.5,3.2-3.9,3.2c-1.1,0-2.2-0.3-3-0.7L332,859.1z"/>
	<path class="st3" d="M347.6,847.5c0,0.7-0.5,1.2-1.2,1.2c-0.7,0-1.1-0.5-1.1-1.2s0.5-1.2,1.2-1.2
		C347.1,846.3,347.6,846.8,347.6,847.5z M345.4,861v-10.5h1.9V861H345.4z"/>
	<path class="st3" d="M350.5,853.3c0-1.1,0-2-0.1-2.8h1.7l0.1,1.7h0c0.5-1,1.7-2,3.5-2c1.5,0,3.7,0.9,3.7,4.5v6.3h-1.9v-6.1
		c0-1.7-0.6-3.1-2.4-3.1c-1.2,0-2.2,0.9-2.6,2c-0.1,0.2-0.1,0.6-0.1,0.9v6.3h-1.9L350.5,853.3L350.5,853.3z"/>
	<path class="st3" d="M367.9,850.5l2.1,5.9c0.4,1,0.6,1.8,0.9,2.7h0.1c0.2-0.9,0.5-1.7,0.9-2.7l2-5.9h2l-4.1,10.5h-1.8l-4-10.5
		H367.9z"/>
	<path class="st3" d="M378.5,856.1c0,2.6,1.7,3.7,3.6,3.7c1.4,0,2.2-0.2,2.9-0.5l0.4,1.4c-0.7,0.3-1.9,0.7-3.5,0.7
		c-3.2,0-5.2-2.2-5.2-5.3s1.9-5.7,4.9-5.7c3.5,0,4.4,3,4.4,4.9c0,0.4,0,0.7-0.1,0.9H378.5z M384.1,854.7c0-1.2-0.5-3.1-2.6-3.1
		c-2,0-2.8,1.8-2.9,3.1H384.1z"/>
	<path class="st3" d="M395.8,860.6c-0.5,0.2-1.6,0.6-3,0.6c-3.2,0-5.2-2.2-5.2-5.4c0-3.2,2.2-5.6,5.6-5.6c1.1,0,2.1,0.3,2.6,0.6
		l-0.4,1.5c-0.5-0.2-1.2-0.5-2.2-0.5c-2.4,0-3.7,1.8-3.7,4c0,2.4,1.6,3.9,3.6,3.9c1.1,0,1.8-0.3,2.4-0.5L395.8,860.6z"/>
	<path class="st3" d="M400.6,848v2.5h2.7v1.5h-2.7v5.7c0,1.3,0.4,2,1.4,2c0.5,0,0.8,0,1.1-0.1l0.1,1.5c-0.4,0.1-1,0.3-1.7,0.3
		c-0.9,0-1.6-0.3-2.1-0.8c-0.5-0.6-0.7-1.5-0.7-2.8v-5.7h-1.6v-1.5h1.6v-2L400.6,848z"/>
	<path class="st3" d="M414.9,855.7c0,3.9-2.7,5.6-5.2,5.6c-2.8,0-5-2.1-5-5.4c0-3.5,2.3-5.6,5.2-5.6
		C412.9,850.3,414.9,852.5,414.9,855.7z M406.6,855.8c0,2.3,1.3,4,3.2,4c1.8,0,3.2-1.7,3.2-4.1c0-1.8-0.9-4-3.1-4
		C407.6,851.7,406.6,853.8,406.6,855.8z"/>
	<path class="st3" d="M417.3,853.8c0-1.2,0-2.3-0.1-3.3h1.7l0.1,2.1h0.1c0.5-1.4,1.6-2.3,2.9-2.3c0.2,0,0.4,0,0.5,0v1.8
		c-0.2,0-0.4,0-0.6,0c-1.4,0-2.3,1-2.6,2.4c0,0.3-0.1,0.6-0.1,0.9v5.6h-1.9L417.3,853.8L417.3,853.8z"/>
	<path class="st3" d="M429.2,861v-9.1h-1.5v-1.5h1.5V850c0-1.5,0.4-2.8,1.2-3.7c0.7-0.7,1.7-1,2.6-1c0.7,0,1.3,0.2,1.6,0.3l-0.3,1.5
		c-0.3-0.1-0.6-0.2-1.2-0.2c-1.6,0-2,1.4-2,3v0.6h2.5v1.5h-2.5v9.1H429.2z"/>
	<path class="st3" d="M444.6,855.7c0,3.9-2.7,5.6-5.2,5.6c-2.8,0-5-2.1-5-5.4c0-3.5,2.3-5.6,5.2-5.6
		C442.6,850.3,444.6,852.5,444.6,855.7z M436.3,855.8c0,2.3,1.3,4,3.2,4c1.8,0,3.2-1.7,3.2-4.1c0-1.8-0.9-4-3.1-4
		C437.3,851.7,436.3,853.8,436.3,855.8z"/>
	<path class="st3" d="M447,853.8c0-1.2,0-2.3-0.1-3.3h1.7l0.1,2.1h0.1c0.5-1.4,1.6-2.3,2.9-2.3c0.2,0,0.4,0,0.5,0v1.8
		c-0.2,0-0.4,0-0.6,0c-1.4,0-2.3,1-2.6,2.4c0,0.3-0.1,0.6-0.1,0.9v5.6H447V853.8z"/>
	<path class="st3" d="M454.2,853.3c0-1.1,0-2-0.1-2.8h1.7l0.1,1.7h0.1c0.6-1,1.6-1.9,3.3-1.9c1.4,0,2.5,0.9,3,2.1h0
		c0.3-0.6,0.8-1,1.2-1.4c0.6-0.5,1.3-0.7,2.3-0.7c1.4,0,3.5,0.9,3.5,4.6v6.2h-1.9v-5.9c0-2-0.8-3.2-2.3-3.2c-1.1,0-1.9,0.8-2.3,1.7
		c-0.1,0.3-0.1,0.6-0.1,1v6.5h-1.9v-6.3c0-1.7-0.7-2.9-2.2-2.9c-1.2,0-2.1,1-2.4,1.9c-0.1,0.3-0.1,0.6-0.1,0.9v6.3h-1.9L454.2,853.3
		L454.2,853.3z"/>
	<path class="st3" d="M479.8,858.5c0,0.9,0,1.8,0.1,2.5h-1.7l-0.1-1.3H478c-0.6,0.8-1.7,1.6-3.2,1.6c-2.1,0-3.2-1.5-3.2-3
		c0-2.5,2.3-3.9,6.3-3.9v-0.2c0-0.8-0.2-2.4-2.4-2.4c-1,0-2,0.3-2.8,0.8l-0.4-1.3c0.9-0.5,2.1-0.9,3.5-0.9c3.2,0,4,2.2,4,4.3V858.5z
		 M477.9,855.6c-2.1,0-4.5,0.3-4.5,2.4c0,1.3,0.8,1.8,1.8,1.8c1.4,0,2.3-0.9,2.6-1.8c0.1-0.2,0.1-0.4,0.1-0.6L477.9,855.6
		L477.9,855.6z"/>
	<path class="st3" d="M485,848v2.5h2.7v1.5H485v5.7c0,1.3,0.4,2,1.4,2c0.5,0,0.8,0,1.1-0.1l0.1,1.5c-0.4,0.1-1,0.3-1.7,0.3
		c-0.9,0-1.6-0.3-2.1-0.8c-0.5-0.6-0.7-1.5-0.7-2.8v-5.7h-1.6v-1.5h1.6v-2L485,848z"/>
	<path class="st3" d="M494.7,861v-9.1h-1.5v-1.5h1.5V850c0-1.5,0.4-2.8,1.2-3.7c0.7-0.7,1.7-1,2.6-1c0.7,0,1.3,0.2,1.6,0.3l-0.3,1.5
		c-0.3-0.1-0.6-0.2-1.2-0.2c-1.6,0-2,1.4-2,3v0.6h2.5v1.5h-2.5v9.1H494.7z"/>
	<path class="st3" d="M510.1,855.7c0,3.9-2.7,5.6-5.2,5.6c-2.8,0-5-2.1-5-5.4c0-3.5,2.3-5.6,5.2-5.6
		C508.1,850.3,510.1,852.5,510.1,855.7z M501.8,855.8c0,2.3,1.3,4,3.2,4c1.8,0,3.2-1.7,3.2-4.1c0-1.8-0.9-4-3.1-4
		C502.8,851.7,501.8,853.8,501.8,855.8z"/>
	<path class="st3" d="M512.5,853.8c0-1.2,0-2.3-0.1-3.3h1.7l0.1,2.1h0.1c0.5-1.4,1.7-2.3,2.9-2.3c0.2,0,0.3,0,0.5,0v1.8
		c-0.2,0-0.4,0-0.7,0c-1.3,0-2.3,1-2.6,2.4c0,0.3-0.1,0.6-0.1,0.9v5.6h-1.9L512.5,853.8L512.5,853.8z"/>
	<path class="st3" d="M524.5,861v-9.1H523v-1.5h1.5V850c0-1.5,0.3-2.8,1.2-3.7c0.7-0.7,1.7-1,2.6-1c0.7,0,1.3,0.2,1.6,0.3l-0.3,1.5
		c-0.3-0.1-0.7-0.2-1.2-0.2c-1.6,0-2,1.4-2,3v0.6h2.5v1.5h-2.5v9.1H524.5z"/>
	<path class="st3" d="M530.6,853.8c0-1.2,0-2.3-0.1-3.3h1.7l0.1,2.1h0.1c0.5-1.4,1.7-2.3,2.9-2.3c0.2,0,0.3,0,0.5,0v1.8
		c-0.2,0-0.4,0-0.7,0c-1.3,0-2.3,1-2.6,2.4c0,0.3-0.1,0.6-0.1,0.9v5.6h-1.9L530.6,853.8L530.6,853.8z"/>
	<path class="st3" d="M538.6,856.1c0,2.6,1.7,3.7,3.6,3.7c1.4,0,2.2-0.2,2.9-0.5l0.3,1.4c-0.7,0.3-1.8,0.7-3.5,0.7
		c-3.2,0-5.2-2.2-5.2-5.3s1.9-5.7,4.9-5.7c3.5,0,4.3,3,4.3,4.9c0,0.4,0,0.7-0.1,0.9H538.6z M544.2,854.7c0-1.2-0.5-3.1-2.7-3.1
		c-2,0-2.8,1.8-2.9,3.1H544.2z"/>
	<path class="st3" d="M549.5,856.1c0,2.6,1.7,3.7,3.6,3.7c1.4,0,2.2-0.2,2.9-0.5l0.3,1.4c-0.7,0.3-1.8,0.7-3.5,0.7
		c-3.2,0-5.2-2.2-5.2-5.3s1.9-5.7,4.9-5.7c3.5,0,4.3,3,4.3,4.9c0,0.4,0,0.7-0.1,0.9H549.5z M555,854.7c0-1.2-0.5-3.1-2.7-3.1
		c-2,0-2.8,1.8-2.9,3.1H555z"/>
	<path class="st3" d="M558.6,859.9c0-0.8,0.5-1.4,1.3-1.4s1.3,0.6,1.3,1.4c0,0.8-0.5,1.4-1.3,1.4
		C559.1,861.2,558.6,860.7,558.6,859.9z"/>
	<path class="st4" d="M156,871.7h3.3v6.1h0c0.4-0.5,0.8-0.8,1.3-1.1c0.5-0.3,1.1-0.4,1.7-0.4c2.1,0,3.7,1.5,3.7,4.7v6.2h-3.3v-5.8
		c0-1.4-0.5-2.3-1.7-2.3c-0.9,0-1.4,0.6-1.6,1.2c-0.1,0.2-0.1,0.5-0.1,0.7v6.3H156V871.7z"/>
	<path class="st4" d="M174.5,873.6v2.9h2.4v2.4h-2.4v3.8c0,1.3,0.3,1.9,1.3,1.9c0.5,0,0.7,0,1-0.1l0,2.5c-0.4,0.2-1.2,0.3-2.1,0.3
		c-1.1,0-2-0.4-2.5-0.9c-0.6-0.6-0.9-1.7-0.9-3.2v-4.3h-1.4v-2.4h1.4v-2L174.5,873.6z"/>
	<path class="st4" d="M184.6,873.6v2.9h2.4v2.4h-2.4v3.8c0,1.3,0.3,1.9,1.3,1.9c0.5,0,0.7,0,1-0.1l0,2.5c-0.4,0.2-1.2,0.3-2.1,0.3
		c-1.1,0-2-0.4-2.5-0.9c-0.6-0.6-0.9-1.7-0.9-3.2v-4.3H180v-2.4h1.4v-2L184.6,873.6z"/>
	<path class="st4" d="M191.1,880c0-1.4,0-2.6-0.1-3.6h2.9l0.1,1.5h0c0.8-1.1,2-1.7,3.5-1.7c2.3,0,4.4,2,4.4,5.4
		c0,3.9-2.5,5.7-4.8,5.7c-1.3,0-2.3-0.5-2.8-1.2h0v5.3h-3.3L191.1,880L191.1,880z M194.4,882.5c0,0.3,0,0.5,0.1,0.7
		c0.2,0.9,1,1.6,1.9,1.6c1.4,0,2.3-1.2,2.3-3c0-1.7-0.8-3-2.2-3c-0.9,0-1.8,0.7-2,1.7c0,0.2-0.1,0.4-0.1,0.6L194.4,882.5
		L194.4,882.5z"/>
	<path class="st4" d="M206,878.3c0-1.2,0.8-2,1.9-2c1.1,0,1.9,0.8,1.9,2c0,1.1-0.8,2-2,2C206.8,880.3,206,879.5,206,878.3z
		 M206,885.3c0-1.2,0.8-2,1.9-2c1.1,0,1.9,0.8,1.9,2c0,1.1-0.8,2-2,2C206.8,887.3,206,886.5,206,885.3z"/>
	<path class="st4" d="M213.1,887.9l4.6-15.8h2.2l-4.6,15.8H213.1z"/>
	<path class="st4" d="M222.4,887.9l4.6-15.8h2.2l-4.6,15.8H222.4z"/>
	<path class="st4" d="M235.1,876.5l0.9,4.4c0.2,1.1,0.4,2.3,0.6,3.5h0.1c0.2-1.2,0.5-2.4,0.8-3.5l1.1-4.4h2.6l1.1,4.2
		c0.3,1.2,0.6,2.4,0.8,3.6h0c0.1-1.2,0.4-2.4,0.6-3.6l0.9-4.2h3.2l-3.3,10.6h-3.1l-1-3.7c-0.3-1-0.5-2-0.7-3.3h0
		c-0.2,1.3-0.4,2.3-0.7,3.3l-1.1,3.7h-3.1l-3.1-10.6L235.1,876.5L235.1,876.5z"/>
	<path class="st4" d="M254.2,876.5l0.9,4.4c0.2,1.1,0.4,2.3,0.6,3.5h0.1c0.2-1.2,0.5-2.4,0.8-3.5l1.1-4.4h2.6l1.1,4.2
		c0.3,1.2,0.6,2.4,0.8,3.6h0c0.1-1.2,0.4-2.4,0.6-3.6l0.9-4.2h3.2l-3.3,10.6h-3.1l-1-3.7c-0.3-1-0.5-2-0.7-3.3h0
		c-0.2,1.3-0.4,2.3-0.7,3.3l-1.1,3.7h-3.1l-3.1-10.6L254.2,876.5L254.2,876.5z"/>
	<path class="st4" d="M273.2,876.5l0.9,4.4c0.2,1.1,0.4,2.3,0.6,3.5h0.1c0.2-1.2,0.5-2.4,0.8-3.5l1.1-4.4h2.6l1.1,4.2
		c0.3,1.2,0.6,2.4,0.8,3.6h0c0.1-1.2,0.4-2.4,0.6-3.6l0.9-4.2h3.2l-3.3,10.6h-3.1l-1-3.7c-0.3-1-0.5-2-0.7-3.3h0
		c-0.2,1.3-0.4,2.3-0.7,3.3l-1.1,3.7H273l-3.1-10.6L273.2,876.5L273.2,876.5z"/>
	<path class="st4" d="M288.4,885.3c0-1.2,0.8-2,2-2c1.1,0,1.9,0.8,1.9,2c0,1.2-0.8,2-2,2C289.1,887.3,288.4,886.5,288.4,885.3z"/>
	<path class="st4" d="M296.4,871.7h3.3v15.4h-3.3V871.7z"/>
	<path class="st4" d="M315.1,881.7c0,3.9-2.8,5.7-5.6,5.7c-3.1,0-5.5-2-5.5-5.5c0-3.5,2.3-5.7,5.7-5.7
		C312.9,876.2,315.1,878.4,315.1,881.7z M307.4,881.8c0,1.8,0.8,3.2,2.2,3.2c1.3,0,2.1-1.3,2.1-3.2c0-1.6-0.6-3.2-2.1-3.2
		C308,878.6,307.4,880.2,307.4,881.8z"/>
	<path class="st4" d="M329.4,885.5c0,2-0.4,3.7-1.6,4.8c-1.1,1-2.7,1.3-4.3,1.3c-1.4,0-2.9-0.3-3.8-0.8l0.6-2.5
		c0.7,0.4,1.8,0.8,3.1,0.8c1.6,0,2.8-0.8,2.8-2.8v-0.7h0c-0.6,0.9-1.6,1.4-2.9,1.4c-2.6,0-4.5-2.1-4.5-5.2c0-3.4,2.2-5.6,4.8-5.6
		c1.5,0,2.4,0.6,2.9,1.5h0l0.1-1.3h2.9c0,0.7-0.1,1.6-0.1,3.2V885.5z M326.1,880.8c0-0.2,0-0.4-0.1-0.6c-0.2-0.9-0.9-1.5-1.8-1.5
		c-1.2,0-2.2,1.1-2.2,3c0,1.6,0.8,2.8,2.1,2.8c0.9,0,1.5-0.6,1.8-1.3c0.1-0.3,0.1-0.6,0.1-0.9L326.1,880.8L326.1,880.8z"/>
	<path class="st4" d="M344.7,881.7c0,3.9-2.8,5.7-5.6,5.7c-3.1,0-5.5-2-5.5-5.5c0-3.5,2.3-5.7,5.7-5.7
		C342.5,876.2,344.7,878.4,344.7,881.7z M337,881.8c0,1.8,0.8,3.2,2.2,3.2c1.3,0,2.1-1.3,2.1-3.2c0-1.6-0.6-3.2-2.1-3.2
		C337.6,878.6,337,880.2,337,881.8z"/>
	<path class="st4" d="M351.5,882.8c0.1,1.4,1.5,2,3,2c1.1,0,2-0.2,2.9-0.5l0.4,2.2c-1.1,0.5-2.4,0.7-3.9,0.7c-3.6,0-5.7-2.1-5.7-5.4
		c0-2.7,1.7-5.7,5.4-5.7c3.4,0,4.7,2.7,4.7,5.3c0,0.6-0.1,1.1-0.1,1.3L351.5,882.8L351.5,882.8z M355.4,880.6c0-0.8-0.4-2.2-1.9-2.2
		c-1.4,0-2,1.3-2,2.2H355.4z"/>
	<path class="st4" d="M362.7,880c0-1.4,0-2.6-0.1-3.6h2.9l0.1,1.5h0c0.8-1.1,2-1.7,3.5-1.7c2.3,0,4.4,2,4.4,5.4
		c0,3.9-2.5,5.7-4.8,5.7c-1.3,0-2.3-0.5-2.8-1.2h0v5.3h-3.3V880z M366,882.5c0,0.3,0,0.5,0.1,0.7c0.2,0.9,1,1.6,1.9,1.6
		c1.4,0,2.3-1.2,2.3-3c0-1.7-0.8-3-2.2-3c-0.9,0-1.8,0.7-2,1.7c0,0.2-0.1,0.4-0.1,0.6L366,882.5L366,882.5z"/>
	<path class="st4" d="M377.8,884.2c0.6,0.4,1.9,0.8,2.9,0.8c1,0,1.4-0.3,1.4-0.9c0-0.6-0.3-0.8-1.5-1.2c-2.2-0.7-3.1-1.9-3-3.2
		c0-2,1.7-3.5,4.3-3.5c1.2,0,2.3,0.3,3,0.6l-0.6,2.3c-0.5-0.3-1.4-0.6-2.3-0.6c-0.8,0-1.3,0.3-1.3,0.8s0.4,0.8,1.7,1.2
		c2,0.7,2.9,1.7,2.9,3.3c0,2-1.5,3.5-4.6,3.5c-1.4,0-2.6-0.3-3.4-0.8L377.8,884.2z"/>
	<path class="st4" d="M389,885.3c0-1.2,0.8-2,2-2c1.1,0,1.9,0.8,1.9,2c0,1.2-0.8,2-2,2C389.8,887.3,389,886.5,389,885.3z"/>
	<path class="st4" d="M405,886.8c-0.6,0.3-1.7,0.5-3,0.5c-3.4,0-5.6-2.1-5.6-5.4c0-3.1,2.1-5.7,6.1-5.7c0.9,0,1.8,0.2,2.5,0.4
		l-0.5,2.5c-0.4-0.2-1-0.3-1.9-0.3c-1.7,0-2.9,1.2-2.9,3c0,1.9,1.3,3,2.9,3c0.8,0,1.4-0.1,1.9-0.3L405,886.8z"/>
	<path class="st4" d="M419.3,881.7c0,3.9-2.8,5.7-5.6,5.7c-3.1,0-5.5-2-5.5-5.5c0-3.5,2.3-5.7,5.7-5.7
		C417.1,876.2,419.3,878.4,419.3,881.7z M411.6,881.8c0,1.8,0.8,3.2,2.2,3.2c1.3,0,2.1-1.3,2.1-3.2c0-1.6-0.6-3.2-2.1-3.2
		C412.2,878.6,411.6,880.2,411.6,881.8z"/>
	<path class="st4" d="M423.5,879.8c0-1.3,0-2.4-0.1-3.4h2.8l0.1,1.4h0.1c0.5-0.7,1.4-1.7,3.2-1.7c1.4,0,2.5,0.7,2.9,1.8h0
		c0.4-0.6,0.9-1,1.4-1.3c0.6-0.3,1.2-0.5,2-0.5c2,0,3.6,1.4,3.6,4.6v6.3h-3.2v-5.8c0-1.5-0.5-2.4-1.6-2.4c-0.8,0-1.3,0.5-1.5,1.2
		c-0.1,0.2-0.1,0.6-0.1,0.8v6.2h-3.2v-6c0-1.3-0.5-2.2-1.5-2.2c-0.9,0-1.4,0.7-1.5,1.2c-0.1,0.3-0.1,0.6-0.1,0.8v6.2h-3.2
		L423.5,879.8L423.5,879.8z"/>
	<path class="st4" d="M443.4,887.9l4.6-15.8h2.2l-4.6,15.8H443.4z"/>
</g>
<linearGradient id="SVGID_2_" gradientUnits="userSpaceOnUse" x1="15113.1992" y1="-13821.4336" x2="15431.9277" y2="-13821.4336" gradientTransform="matrix(-0.181 0.1724 -0.1724 -0.181 673.5874 -4737.5361)">
	<stop  offset="0" style="stop-color:#0A6B37"/>
	<stop  offset="0.5" style="stop-color:#4BB749"/>
	<stop  offset="1" style="stop-color:#098040"/>
</linearGradient>
<polygon class="st5" points="264.4,368.6 263,425 319.1,426.4 320.5,369.8 "/>
<linearGradient id="SVGID_3_" gradientUnits="userSpaceOnUse" x1="322.6831" y1="470.7129" x2="263.6869" y2="414.5171" gradientTransform="matrix(1 0 0 -1 0 840)">
	<stop  offset="0" style="stop-color:#0A6B37"/>
	<stop  offset="0.5" style="stop-color:#4BB749"/>
	<stop  offset="1" style="stop-color:#098040"/>
</linearGradient>
<rect x="264.4" y="368.6" class="st6" width="57.6" height="57.6"/>
<g>
	<g>
		<g>
			<g>
				<defs>
					
						<rect id="SVGID_4_" x="56.4" y="259.3" transform="matrix(0.7084 -0.7058 0.7058 0.7084 -177.4597 265.6293)" width="352.8" height="176.5"/>
				</defs>
				<clipPath id="SVGID_5_">
					<use xlink:href="#SVGID_4_"  style="overflow:visible;"/>
				</clipPath>
				<g class="st7">
					<g>
						<g>
							<defs>
								<rect id="SVGID_6_" x="40.5" y="155.6" width="384.5" height="384"/>
							</defs>
							<clipPath id="SVGID_7_">
								<use xlink:href="#SVGID_6_"  style="overflow:visible;"/>
							</clipPath>
							<g class="st8">
								
									<image style="overflow:visible;enable-background:new    ;" width="804" height="802" xlink:href="C356891C729E5609.jpeg"  transform="matrix(0.4788 0 0 0.4788 40.26 155.7788)">
								</image>
							</g>
						</g>
					</g>
				</g>
			</g>
			
				<linearGradient id="SVGID_8_" gradientUnits="userSpaceOnUse" x1="34308.3477" y1="-32790.4258" x2="35671.6758" y2="-32790.4258" gradientTransform="matrix(-8.840000e-02 -8.840000e-02 -8.840000e-02 8.840000e-02 483.5853 6278.2847)">
				<stop  offset="0" style="stop-color:#FFCE6C"/>
				<stop  offset="0.6" style="stop-color:#E6E645"/>
				<stop  offset="1" style="stop-color:#FFCE6C"/>
			</linearGradient>
			<polyline class="st9" points="229.5,347.2 229.5,226.4 349.5,226.4 			"/>
			
				<linearGradient id="SVGID_9_" gradientUnits="userSpaceOnUse" x1="34278.4062" y1="-31553.5957" x2="35622.5352" y2="-31553.5957" gradientTransform="matrix(-8.840000e-02 -8.840000e-02 -8.840000e-02 8.840000e-02 471.4903 6284.2515)">
				<stop  offset="0" style="stop-color:#FFCE6B"/>
				<stop  offset="0.4" style="stop-color:#E6E643"/>
				<stop  offset="1" style="stop-color:#F8F4AC"/>
			</linearGradient>
			<polyline class="st10" points="230.7,346.1 230.7,465.4 112.4,465.1 			"/>
			
				<linearGradient id="SVGID_10_" gradientUnits="userSpaceOnUse" x1="174.0604" y1="307.1148" x2="108.7153" y2="372.4599" gradientTransform="matrix(1.0002 -2.037946e-03 2.037946e-03 -1.0002 -7.858052e-02 840.8284)">
				<stop  offset="0" style="stop-color:#FFCE6B"/>
				<stop  offset="0.3497" style="stop-color:#E6E643"/>
				<stop  offset="1" style="stop-color:#F8F4AC"/>
			</linearGradient>
			<polygon class="st11" points="106.5,471 112.4,465.1 177.6,530.4 171.7,536.2 			"/>
		</g>
		
			<rect x="394.4" y="245.2" transform="matrix(0.7071 -0.7071 0.7071 0.7071 -75.3229 362.0357)" class="st12" width="10" height="53.5"/>
		
			<rect x="387.3" y="252.3" transform="matrix(0.7071 -0.7071 0.7071 0.7071 -82.3802 359.1072)" class="st13" width="10" height="53.5"/>
		<rect x="380.2" y="259.3" transform="matrix(0.7071 -0.7071 0.7071 0.7071 -89.4474 356.1829)" width="10" height="53.5"/>
		<g>
			<g>
				<g>
					<g>
						<defs>
							
								<rect id="SVGID_11_" x="184.4" y="387.7" transform="matrix(0.7084 -0.7058 0.7058 0.7084 -230.7607 393.4124)" width="352.8" height="176.5"/>
						</defs>
						<clipPath id="SVGID_12_">
							<use xlink:href="#SVGID_11_"  style="overflow:visible;"/>
						</clipPath>
						<g class="st14">
							<g>
								<g>
									<defs>
										<rect id="SVGID_13_" x="168.5" y="284" width="384.5" height="384"/>
									</defs>
									<clipPath id="SVGID_14_">
										<use xlink:href="#SVGID_13_"  style="overflow:visible;"/>
									</clipPath>
									<g class="st15">
										
											<image style="overflow:visible;enable-background:new    ;" width="804" height="802" xlink:href="C356891C729E560B.jpeg"  transform="matrix(0.4788 0 0 0.4788 168.42 283.9388)">
										</image>
									</g>
								</g>
							</g>
						</g>
					</g>
					
						<linearGradient id="SVGID_15_" gradientUnits="userSpaceOnUse" x1="28402.6641" y1="-31463.7129" x2="29754.9512" y2="-31463.7129" gradientTransform="matrix(8.820000e-02 8.860000e-02 -8.860000e-02 8.820000e-02 -5048.0015 736.5345)">
						<stop  offset="0" style="stop-color:#F8F4AE"/>
						<stop  offset="0.6" style="stop-color:#E6E645"/>
						<stop  offset="1" style="stop-color:#FFCE6C"/>
					</linearGradient>
					<polyline class="st16" points="242.9,595.7 362.7,595.9 362.9,476.9 					"/>
					
						<linearGradient id="SVGID_16_" gradientUnits="userSpaceOnUse" x1="28371.4414" y1="-32906.1094" x2="29723.4863" y2="-32906.1094" gradientTransform="matrix(8.820000e-02 8.860000e-02 -8.860000e-02 8.820000e-02 -5053.9907 748.6195)">
						<stop  offset="0" style="stop-color:#FFCE6B"/>
						<stop  offset="0.4" style="stop-color:#E6E643"/>
						<stop  offset="1" style="stop-color:#F8F4AC"/>
					</linearGradient>
					<polyline class="st17" points="482,359 362,358.8 362,477.8 					"/>
					
						<linearGradient id="SVGID_17_" gradientUnits="userSpaceOnUse" x1="239.9875" y1="241.3675" x2="174.6425" y2="306.7125" gradientTransform="matrix(1 0 0 -1 0 840)">
						<stop  offset="0" style="stop-color:#F8F4AC"/>
						<stop  offset="0.3497" style="stop-color:#E6E643"/>
						<stop  offset="1" style="stop-color:#FFCE6B"/>
					</linearGradient>
					<polygon class="st18" points="171.7,536.2 177.6,530.4 242.9,595.7 237.1,601.6 					"/>
					
						<rect x="432.2" y="283" transform="matrix(0.7071 -0.7071 0.7071 0.7071 -90.9895 399.8692)" class="st12" width="10" height="53.5"/>
					
						<rect x="425.1" y="290.1" transform="matrix(0.7071 -0.7071 0.7071 0.7071 -98.0567 396.9449)" class="st13" width="10" height="53.5"/>
					<rect x="418.1" y="297.2" transform="matrix(0.7071 -0.7071 0.7071 0.7071 -105.114 394.0165)" width="10" height="53.5"/>
				</g>
				
					<linearGradient id="SVGID_18_" gradientUnits="userSpaceOnUse" x1="533.7678" y1="434.3722" x2="468.4309" y2="499.7092" gradientTransform="matrix(0.9675 -3.250000e-02 3.250000e-02 -0.9675 14.4876 854.4876)">
					<stop  offset="0" style="stop-color:#F8F4AC"/>
					<stop  offset="0.3497" style="stop-color:#E6E643"/>
					<stop  offset="1" style="stop-color:#FFCE6B"/>
				</linearGradient>
				<polygon class="st19" points="481,358.7 486.9,352.9 548,414 542.1,419.8 				"/>
				
					<linearGradient id="SVGID_19_" gradientUnits="userSpaceOnUse" x1="322.1085" y1="646.7816" x2="256.7648" y2="712.1252" gradientTransform="matrix(0.9598 -4.020000e-02 4.020000e-02 -0.9598 17.2247 857.2247)">
					<stop  offset="0" style="stop-color:#F8F4AC"/>
					<stop  offset="0.3497" style="stop-color:#E6E643"/>
					<stop  offset="1" style="stop-color:#FFCE6B"/>
				</linearGradient>
				<polygon class="st20" points="289.4,166.3 295.2,160.5 355.3,220.6 349.5,226.4 				"/>
				<rect x="314.5" y="436" class="st21" width="42.1" height="8.1"/>
				<text transform="matrix(1 0 0 1 314.5 440.1748)" class="st22 st23 st24">GUNDAM</text>
			</g>
		</g>
	</g>
</g>
</svg>
